<svg width="440" height="438" viewBox="0 0 440 438" fill="none" xmlns="http://www.w3.org/2000/svg">
<g clip-path="url(#clip0_128_105)">
<path d="M91.36 278.9L82.97 280.42L81.32 271.32L71.34 273.13L72.99 282.23L64.59 283.75L66.47 294.08L74.86 292.56L76.51 301.66L86.49 299.85L84.84 290.75L93.23 289.23L91.36 278.9Z" stroke="#5893FF" stroke-linecap="round" stroke-linejoin="round"/>
<path d="M175.22 139.5L167.18 136.66L170.26 127.94L160.69 124.56L157.61 133.28L149.57 130.44L146.07 140.34L154.12 143.18L151.04 151.9L160.6 155.28L163.68 146.56L171.72 149.4L175.22 139.5Z" stroke="#5893FF" stroke-linecap="round" stroke-linejoin="round"/>
<path d="M378.26 243.71L370.72 247.7L366.39 239.53L357.43 244.27L361.76 252.45L354.22 256.44L359.13 265.72L366.67 261.73L371 269.9L379.96 265.16L375.63 256.98L383.17 252.99L378.26 243.71Z" stroke="#5893FF" stroke-linecap="round" stroke-linejoin="round"/>
<path d="M56.28 257.22C59.66 257.22 62.4 254.48 62.4 251.1C62.4 247.72 59.66 244.98 56.28 244.98C52.9 244.98 50.16 247.72 50.16 251.1C50.16 254.48 52.9 257.22 56.28 257.22Z" stroke="#5893FF" stroke-linecap="round" stroke-linejoin="round"/>
<path d="M151.62 169.28C151.62 169.6 151.525 169.914 151.347 170.18C151.169 170.446 150.916 170.654 150.62 170.777C150.324 170.899 149.998 170.931 149.684 170.869C149.37 170.806 149.081 170.652 148.854 170.426C148.628 170.199 148.474 169.91 148.411 169.596C148.349 169.282 148.381 168.956 148.503 168.66C148.626 168.364 148.834 168.111 149.1 167.933C149.366 167.755 149.68 167.66 150 167.66C150.43 167.66 150.842 167.831 151.146 168.134C151.449 168.438 151.62 168.85 151.62 169.28V169.28Z" stroke="#5893FF" stroke-linecap="round" stroke-linejoin="round"/>
<path d="M77.49 141.49C77.49 142.621 77.1545 143.727 76.526 144.668C75.8975 145.609 75.0042 146.342 73.959 146.775C72.9138 147.208 71.7637 147.321 70.6541 147.1C69.5445 146.879 68.5253 146.335 67.7254 145.535C66.9254 144.735 66.3806 143.715 66.1599 142.606C65.9392 141.496 66.0525 140.346 66.4854 139.301C66.9184 138.256 67.6515 137.363 68.5922 136.734C69.5328 136.105 70.6387 135.77 71.77 135.77C73.2862 135.773 74.7396 136.376 75.8117 137.448C76.8839 138.52 77.4874 139.974 77.49 141.49V141.49Z" stroke="#5893FF" stroke-linecap="round" stroke-linejoin="round"/>
<path d="M329.52 218.97C329.52 219.611 329.33 220.237 328.974 220.77C328.618 221.303 328.112 221.718 327.52 221.963C326.928 222.209 326.276 222.273 325.648 222.148C325.019 222.023 324.442 221.714 323.989 221.261C323.536 220.808 323.227 220.231 323.102 219.602C322.977 218.974 323.041 218.322 323.287 217.73C323.532 217.138 323.947 216.632 324.48 216.276C325.013 215.92 325.639 215.73 326.28 215.73C327.139 215.73 327.963 216.071 328.571 216.679C329.179 217.287 329.52 218.111 329.52 218.97V218.97Z" stroke="#5893FF" stroke-linecap="round" stroke-linejoin="round"/>
<path d="M296.76 120.22C300.764 120.22 304.01 116.974 304.01 112.97C304.01 108.966 300.764 105.72 296.76 105.72C292.756 105.72 289.51 108.966 289.51 112.97C289.51 116.974 292.756 120.22 296.76 120.22Z" stroke="#5893FF" stroke-linecap="round" stroke-linejoin="round"/>
<path d="M252.13 178.14C252.51 178.71 263.98 181 269.93 189.65C273.392 194.619 276.296 199.955 278.59 205.56C278.59 205.56 288.54 211.48 293.64 216.36C298.74 221.24 304.82 227.72 309.51 231.12C314.2 234.52 323.85 240.97 326.28 248.52C326.28 248.52 311.81 288.15 307.72 296.91C303.63 305.67 293.54 324.26 293.54 324.26L275.54 400.73H171.13L167.57 374.5C167.57 374.5 135.57 368.22 122.2 356.5C122.2 356.5 120.94 327.5 126.53 301.63C132.12 275.76 151.13 221.97 164.01 205.54C164.01 205.54 184.58 195.7 202.73 192.54C202.73 192.54 214.51 183.23 222.22 182.24C229.93 181.25 252.13 178.14 252.13 178.14Z" fill="white"/>
<path d="M168.98 386.32C178.25 388.09 186.33 389.62 195.77 389.51C205.21 389.4 214.85 387.28 222.57 381.87C224.061 380.629 225.752 379.648 227.57 378.97C231.67 377.82 235.73 380.53 239.8 381.79C244.96 383.39 250.62 382.63 255.68 380.71C260.74 378.79 265.29 375.8 269.8 372.82C269.133 382.02 268.917 391.237 269.15 400.47L275.58 400.73L292.05 328.26C292.05 328.26 263.88 360.98 250.15 370.75L223.81 363.97C223.81 363.97 221.33 366.03 216.11 367.07C216.11 367.07 213.72 376.26 200.28 376.28C186.84 376.3 167.57 374.5 167.57 374.5L168.98 386.32Z" fill="#5893FF"/>
<path opacity="0.5" d="M168.98 386.32C178.25 388.09 186.33 389.62 195.77 389.51C205.21 389.4 214.85 387.28 222.57 381.87C224.061 380.629 225.752 379.648 227.57 378.97C231.67 377.82 235.73 380.53 239.8 381.79C244.96 383.39 250.62 382.63 255.68 380.71C260.74 378.79 265.29 375.8 269.8 372.82C269.133 382.02 268.917 391.237 269.15 400.47L275.58 400.73L292.05 328.26C292.05 328.26 263.88 360.98 250.15 370.75L223.81 363.97C223.81 363.97 221.33 366.03 216.11 367.07C216.11 367.07 213.72 376.26 200.28 376.28C186.84 376.3 167.57 374.5 167.57 374.5L168.98 386.32Z" fill="white"/>
<path d="M141.99 251.1C141.99 251.1 129.76 310.47 130.38 330.86C130.38 330.86 147 326.2 158.6 330.86C158.6 330.86 138.86 328.66 130.36 337.71C121.86 346.76 148.02 370.54 200.36 365.71C200.36 365.71 210.8 368.98 216.1 367.06C216.1 367.06 214.68 376.52 200.27 376.27C185.92 375.7 143.94 375.35 122.19 356.51C122.2 356.52 119.46 301.94 141.99 251.1Z" fill="#5893FF"/>
<path opacity="0.6" d="M141.99 251.1C141.99 251.1 129.76 310.47 130.38 330.86C130.38 330.86 147 326.2 158.6 330.86C158.6 330.86 138.86 328.66 130.36 337.71C121.86 346.76 148.02 370.54 200.36 365.71C200.36 365.71 210.8 368.98 216.1 367.06C216.1 367.06 214.68 376.52 200.27 376.27C185.92 375.7 143.94 375.35 122.19 356.51C122.2 356.52 119.46 301.94 141.99 251.1Z" fill="white"/>
<path d="M167 262.48C167 262.48 170.61 288.77 176.44 294.27C182.27 299.77 209.44 297.97 220.2 303.9C220.2 303.9 230.33 286.35 248.65 275.37L223.81 314.48L202.34 309.41L176.13 305.41L173.93 310.47H169.99C169.99 310.47 169.55 282.41 167 262.48Z" fill="#5893FF"/>
<path opacity="0.5" d="M167 262.48C167 262.48 170.61 288.77 176.44 294.27C182.27 299.77 209.44 297.97 220.2 303.9C220.2 303.9 230.33 286.35 248.65 275.37L223.81 314.48L202.34 309.41L176.13 305.41L173.93 310.47H169.99C169.99 310.47 169.55 282.41 167 262.48Z" fill="white"/>
<path d="M269.69 208.93C280.92 215.54 282.18 222.99 284.49 228.31C278.65 229.47 272.61 230.71 267.79 234.2C261.79 238.56 258.54 245.78 256.02 252.79C253.636 259.424 251.633 266.188 250.02 273.05C255.448 263.244 263.163 254.895 272.51 248.71C277.9 245.15 284.56 242.28 290.71 244.29C285.55 246.48 279.71 249.44 278.62 254.94C278.406 255.853 278.444 256.807 278.73 257.7C279.65 260.29 282.87 260.99 285.31 262.25C290.07 264.7 292.55 270.25 292.76 275.63C292.97 281.01 291.32 286.21 289.69 291.3C288.257 295.76 286.823 300.22 285.39 304.68C283.56 310.38 281.7 316.16 278.39 321.16C275.08 326.16 270.11 330.35 264.2 331.33C261.729 331.807 259.172 331.517 256.87 330.5C255.125 329.552 253.503 328.393 252.04 327.05C244.95 321.324 236.43 317.645 227.4 316.41C239.02 324.09 244.52 338.04 249.34 351.11C247.127 347.236 243.938 344.009 240.09 341.75C239.104 341.063 237.932 340.694 236.73 340.69C233.57 340.94 232.57 344.97 230.67 347.49C228.39 350.49 224.22 351.56 220.48 351.08C216.74 350.6 213.3 348.85 209.94 347.08L167.43 325.16L164.43 334.16C164.43 334.16 198.29 361.16 250.17 370.71C250.17 370.71 283.87 344.08 295.81 320.47C307.75 296.86 326.3 248.47 326.3 248.47C326.3 248.47 319.51 235.61 307.87 228.9C307.87 228.9 299.18 224.79 297.35 219.71C295.52 214.63 279.19 205.86 279.19 205.86C279.19 205.86 281.31 211.28 269.69 208.93Z" fill="#5893FF"/>
<path opacity="0.6" d="M269.69 208.93C280.92 215.54 282.18 222.99 284.49 228.31C278.65 229.47 272.61 230.71 267.79 234.2C261.79 238.56 258.54 245.78 256.02 252.79C253.636 259.424 251.633 266.188 250.02 273.05C255.448 263.244 263.163 254.895 272.51 248.71C277.9 245.15 284.56 242.28 290.71 244.29C285.55 246.48 279.71 249.44 278.62 254.94C278.406 255.853 278.444 256.807 278.73 257.7C279.65 260.29 282.87 260.99 285.31 262.25C290.07 264.7 292.55 270.25 292.76 275.63C292.97 281.01 291.32 286.21 289.69 291.3C288.257 295.76 286.823 300.22 285.39 304.68C283.56 310.38 281.7 316.16 278.39 321.16C275.08 326.16 270.11 330.35 264.2 331.33C261.729 331.807 259.172 331.517 256.87 330.5C255.125 329.552 253.503 328.393 252.04 327.05C244.95 321.324 236.43 317.645 227.4 316.41C239.02 324.09 244.52 338.04 249.34 351.11C247.127 347.236 243.938 344.009 240.09 341.75C239.104 341.063 237.932 340.694 236.73 340.69C233.57 340.94 232.57 344.97 230.67 347.49C228.39 350.49 224.22 351.56 220.48 351.08C216.74 350.6 213.3 348.85 209.94 347.08L167.43 325.16L164.43 334.16C164.43 334.16 198.29 361.16 250.17 370.71C250.17 370.71 283.87 344.08 295.81 320.47C307.75 296.86 326.3 248.47 326.3 248.47C326.3 248.47 319.51 235.61 307.87 228.9C307.87 228.9 299.18 224.79 297.35 219.71C295.52 214.63 279.19 205.86 279.19 205.86C279.19 205.86 281.31 211.28 269.69 208.93Z" fill="white"/>
<path d="M266.12 116.88C266.12 116.88 268.39 90.41 256.98 87.88C245.57 85.35 239.16 74.88 239.16 74.88L198.68 86.18L192.4 110.52L196.4 122.84C196.4 122.84 197.24 134.27 197.4 139.92C197.56 145.57 197.4 149.92 201.68 156.78C205.96 163.64 209.94 170.45 219.19 176.38V191.97C219.19 191.97 213.47 208.66 216.63 218.9C216.63 218.9 218.52 220.9 223.74 217.9C228.96 214.9 251.29 199.98 259.08 184.4L261.5 144.79C261.5 144.79 267.93 145.79 270.7 139.93C274.77 134.2 274.61 127.52 273.03 122.08C271.45 116.64 264.65 120.16 264.65 120.16L266.12 116.88Z" fill="#F7D2BA"/>
<path d="M219.63 155.69C220.775 154.444 222.185 153.471 223.757 152.844C225.329 152.218 227.022 151.953 228.71 152.07C228.71 152.07 233.58 144.38 238.71 145.79C238.71 145.79 240.29 153.94 234.14 157.15C226.14 161.32 219.63 155.69 219.63 155.69Z" fill="#DBAE95"/>
<path d="M204.59 82.81C204.59 82.81 194.9 95.54 195.46 108.81C196.02 122.08 197.95 131.49 197.39 141.73C196.83 151.97 207.63 169.12 218.7 176.03C226.97 181.2 237.34 180.32 245.39 175.03C254.39 169.03 259.34 158.25 261.15 147.9C261.33 146.9 261.47 145.9 261.57 144.82" stroke="#263238" stroke-linecap="round" stroke-linejoin="round"/>
<path d="M218.7 176.04C218.7 176.04 220.27 190.38 218.7 195.29C216.97 200.68 214.88 213.23 216.7 218.9C218.52 224.57 252.57 200.74 259.15 184.39C259.15 184.39 260.06 152.62 262.33 144.68" stroke="#263238" stroke-linecap="round" stroke-linejoin="round"/>
<path d="M217.76 155.34C217.76 155.34 233.25 159.72 239.59 143.73" stroke="#263238" stroke-linecap="round" stroke-linejoin="round"/>
<path d="M219.01 179.49C219.01 179.49 222.31 189.72 229.43 190.33C236.55 190.94 254.36 176.67 260.43 159.86V151.45C260.43 151.45 255.43 173.45 240.79 177.45C226.15 181.45 219.3 176.36 219.3 176.36L219.01 179.49Z" fill="#263238"/>
<path d="M238.7 145.79C231.82 145.31 228.7 152.07 228.7 152.07C227.004 151.863 225.284 152.086 223.697 152.719C222.11 153.351 220.708 154.373 219.62 155.69C221.315 157.21 223.399 158.23 225.639 158.637C227.88 159.043 230.189 158.819 232.31 157.99C240.13 155.27 238.7 145.79 238.7 145.79Z" stroke="#263238" stroke-linecap="round" stroke-linejoin="round"/>
<path d="M221.45 115.63C221.535 118.803 221.395 121.977 221.03 125.13C220.66 127.96 219.35 130.67 218.26 133.33C217.26 135.75 215.59 139.47 216.98 142.02C218.56 144.91 223.81 142.02 223.81 142.02" stroke="#263238" stroke-linecap="round" stroke-linejoin="round"/>
<path d="M227.04 141.42C228.81 141.66 231.32 141.42 231.82 138.35" stroke="#263238" stroke-linecap="round" stroke-linejoin="round"/>
<path d="M232.76 111.81C234.471 110.178 236.745 109.267 239.11 109.267C241.475 109.267 243.749 110.178 245.46 111.81" stroke="#263238" stroke-width="2" stroke-linecap="round" stroke-linejoin="round"/>
<path d="M212.58 114.31C212.58 114.31 207.89 108.31 201.75 114.31" stroke="#263238" stroke-width="2" stroke-linecap="round" stroke-linejoin="round"/>
<path d="M257.89 129.48C257.89 129.48 263.24 116.63 270.22 119.39C275.03 121.3 275.32 129.6 272.77 135.39C270.22 141.18 268.94 147.08 260.44 143.78" stroke="#263238" stroke-linecap="round" stroke-linejoin="round"/>
<path d="M258.84 127.51C258.84 127.51 253.7 125.69 252.75 117.34C251.8 108.99 256.92 100.63 255.02 94.63C253.12 88.63 238.15 91.63 234.74 81.17C234.74 81.17 223.5 89.55 201.74 87.75C201.74 87.75 197.15 95.57 196.35 100.35C195.279 107.824 195.306 115.414 196.43 122.88C196.43 123.14 196.52 123.39 196.57 123.65C198.13 131.79 190.36 112.57 190.57 104.36C190.78 96.15 185.83 85.72 192.28 77.95C198.73 70.18 222.38 65.63 227.04 61.98C231.7 58.33 240.76 68.05 251.23 71.63C261.7 75.21 270.38 79.48 269.06 94.33C267.74 109.18 269.13 111.17 269.19 118.99C269.19 119.01 264.35 117.19 258.84 127.51Z" fill="#263238"/>
<path d="M239.13 122.63C239.13 124.63 238.36 126.29 237.4 126.29C236.44 126.29 235.68 124.65 235.68 122.63C235.68 120.61 236.45 118.98 237.4 118.98C238.35 118.98 239.13 120.63 239.13 122.63Z" fill="#263238"/>
<path d="M212.58 122.63C212.58 124.63 211.81 126.29 210.86 126.29C209.91 126.29 209.14 124.65 209.14 122.63C209.14 120.61 209.91 118.98 210.86 118.98C211.81 118.98 212.58 120.63 212.58 122.63Z" fill="#263238"/>
<path d="M232.76 127.51C232.76 127.51 236.33 131.3 240.85 131.84" stroke="#263238" stroke-linecap="round" stroke-linejoin="round"/>
<path d="M208.44 131.84C208.44 131.84 214.97 131.38 216.44 127.51" stroke="#263238" stroke-linecap="round" stroke-linejoin="round"/>
<path d="M223.62 221.33C228.48 218.24 234.91 219.4 240.23 221.59C243.15 222.8 245.93 224.32 248.84 225.59C250.279 226.226 251.763 226.754 253.28 227.17C256.93 228.12 255.62 223.59 255.41 221.56C255.11 218.65 254.9 215.73 254.55 212.84C254.406 212.242 254.477 211.612 254.75 211.06C255.109 210.615 255.611 210.308 256.17 210.19C262.58 208.19 269.49 209.07 276.17 209.19C276.777 209.262 277.391 209.147 277.93 208.86C278.93 208.21 278.82 206.74 278.55 205.58C276.24 195.7 268.09 185.87 259.23 180.93" stroke="#263238" stroke-linecap="round" stroke-linejoin="round"/>
<path d="M219.26 182.53C214.85 184.37 210.32 186.28 206.52 189.1C205.141 190.105 203.871 191.251 202.73 192.52C201.811 193.395 201.233 194.568 201.1 195.83C201.125 196.417 201.28 196.991 201.555 197.51C201.83 198.029 202.218 198.48 202.69 198.83C203.361 199.382 204.101 199.846 204.89 200.21C206.73 201.08 208.89 201.93 209.67 203.78C209.859 204.168 209.929 204.603 209.87 205.03C209.771 205.405 209.578 205.749 209.31 206.03C207.79 207.88 205.11 209.31 205.31 211.7C205.44 213.55 207.31 214.7 208.97 215.52C210.63 216.34 212.57 217.19 213.14 218.96" stroke="#263238" stroke-linecap="round" stroke-linejoin="round"/>
<path d="M193.15 88.76C193.8 84.76 197.98 82.18 202 81.53C206.02 80.88 210.15 81.53 214.2 81.18C217.587 80.8453 220.863 79.7874 223.806 78.0777C226.749 76.3681 229.291 74.0465 231.26 71.27" stroke="white" stroke-linecap="round" stroke-linejoin="round"/>
<path d="M197.7 77.52C204.96 73.23 215.16 77.69 222.24 73.11C224.244 71.6513 225.988 69.8665 227.4 67.83" stroke="white" stroke-linecap="round" stroke-linejoin="round"/>
<path d="M290.31 241.63C264.31 246.82 254.61 265.95 254.61 265.95L223.81 314.46" stroke="#263238" stroke-linecap="round" stroke-linejoin="round"/>
<path d="M268.33 236.39C270.487 234.392 272.931 232.727 275.58 231.45" stroke="#263238" stroke-linecap="round" stroke-linejoin="round"/>
<path d="M250.15 273.01C250.15 273.01 253.43 255.49 262.85 242.58" stroke="#263238" stroke-linecap="round" stroke-linejoin="round"/>
<path d="M169.99 310.39C169.99 310.39 168.64 256.72 163.99 248.52" stroke="#263238" stroke-linecap="round" stroke-linejoin="round"/>
<path d="M278.59 205.56C278.59 205.56 293.59 214.56 300.25 223.02C306.91 231.48 322.65 237.1 326.25 248.52C326.25 248.52 305.52 313.84 283.8 337.45C262.08 361.06 250.12 370.75 250.12 370.75C250.12 370.75 197.87 361.67 163.98 333.21L176.1 305.36C176.1 305.36 210.27 309.68 223.78 314.48C237.29 319.28 250.12 348.35 250.12 348.35" stroke="#263238" stroke-linecap="round" stroke-linejoin="round"/>
<path d="M223.81 314.48C223.81 314.48 247.73 319.13 255.5 330.02" stroke="#263238" stroke-linecap="round" stroke-linejoin="round"/>
<path d="M292.63 325.68L275.57 400.73H171.13L167.56 374.5" stroke="#263238" stroke-linecap="round" stroke-linejoin="round"/>
<path d="M216.11 367.07C210.34 378.89 202.73 376.28 202.73 376.28C143.88 378.51 122.2 356.52 122.2 356.52C122.2 356.52 119.2 325.59 130.77 283.85C142.34 242.11 164.01 205.56 164.01 205.56C173.62 199.17 195.06 194.18 201.11 192.86L202.73 192.52" stroke="#263238" stroke-linecap="round" stroke-linejoin="round"/>
<path d="M202.76 376.28C202.76 376.28 199.65 375.77 200.44 355.15" stroke="#263238" stroke-linecap="round" stroke-linejoin="round"/>
<path d="M165.6 334.53C165.6 334.53 150.9 329.35 132.69 341.95" stroke="#263238" stroke-linecap="round" stroke-linejoin="round"/>
<path d="M135.99 330.02C135.99 330.02 155.25 324.29 163.99 333.47" stroke="#263238" stroke-linecap="round" stroke-linejoin="round"/>
<path d="M161.91 332.95L164.41 334.2L173.93 310.42C173.93 310.42 164.07 308.81 148.45 328.26C153.328 328.317 158.053 329.963 161.91 332.95Z" fill="#F7D2BA" stroke="#263238" stroke-miterlimit="10"/>
<path d="M200.41 355.15V365.72C200.41 365.72 213.88 369.72 223.85 363.97L200.41 355.15Z" fill="#F7D2BA" stroke="#263238" stroke-miterlimit="10"/>
<path d="M273.42 209.08C273.43 209.275 273.41 209.471 273.36 209.66C272.94 211.31 262.67 250.08 229.8 267.33C229.514 267.483 229.194 267.562 228.87 267.56C228.423 267.56 227.989 267.41 227.637 267.134C227.286 266.858 227.036 266.473 226.929 266.039C226.822 265.605 226.864 265.148 227.047 264.74C227.23 264.333 227.544 263.998 227.94 263.79C257.94 248.06 268.51 212.21 269.43 208.91L273.42 209.08Z" fill="#263238"/>
<path d="M202.69 198.8C197.494 210.669 194.69 223.446 194.44 236.4C194.44 237.45 194.44 238.52 194.44 239.61C194.44 239.88 194.44 240.15 194.44 240.42C194.142 240.43 193.844 240.46 193.55 240.51C192.468 240.681 191.419 241.018 190.44 241.51C190.44 240.04 190.44 238.61 190.44 237.2C190.87 214.76 197.57 199.49 201.14 192.89L202.76 192.55C201.841 193.425 201.263 194.598 201.13 195.86C201.16 196.434 201.315 196.995 201.584 197.503C201.854 198.011 202.231 198.453 202.69 198.8Z" fill="#263238"/>
<path d="M242.07 258.31C244.41 261.56 242.49 266.96 237.77 270.37C233.05 273.78 227.33 273.9 224.98 270.65C222.63 267.4 224.55 262 229.27 258.59C233.99 255.18 239.76 255.06 242.07 258.31Z" fill="white" stroke="#263238" stroke-linecap="round" stroke-linejoin="round"/>
<path d="M236.25 256.38C237.91 258.68 236.55 262.5 233.25 264.91C229.95 267.32 225.86 267.41 224.25 265.11C222.64 262.81 223.95 258.99 227.25 256.58C230.55 254.17 234.59 254.09 236.25 256.38Z" fill="white" stroke="#263238" stroke-linecap="round" stroke-linejoin="round"/>
<path d="M209.82 296.97C209.394 297.253 208.876 297.362 208.372 297.275C207.868 297.188 207.416 296.911 207.11 296.501C206.804 296.091 206.667 295.58 206.726 295.072C206.786 294.564 207.038 294.098 207.43 293.77C207.6 293.63 214.31 287.92 211.37 268.69C211.12 267.06 210.8 265.32 210.37 263.49C209.1 257.66 207.14 250.28 203.13 244.86C202.176 243.43 200.87 242.271 199.337 241.493C197.804 240.715 196.097 240.346 194.38 240.42C194.082 240.43 193.784 240.46 193.49 240.51C192.408 240.681 191.359 241.018 190.38 241.51C187.393 243.053 185.125 245.701 184.06 248.89L183.7 249.89C181.432 256.022 179.578 262.3 178.15 268.68C176.55 276.53 176.01 284.76 178.85 290.51C179.611 292.088 180.695 293.488 182.032 294.62C183.369 295.751 184.928 296.59 186.61 297.08C187.061 297.228 187.445 297.533 187.693 297.938C187.94 298.344 188.035 298.825 187.961 299.294C187.886 299.763 187.647 300.191 187.286 300.5C186.925 300.809 186.465 300.979 185.99 300.98C185.779 300.98 185.57 300.946 185.37 300.88C183.183 300.223 181.156 299.12 179.418 297.64C177.679 296.159 176.267 294.334 175.27 292.28C172.07 285.81 172.49 277 174.11 268.68C175.546 261.838 177.492 255.112 179.93 248.56L180.29 247.56C181.076 245.18 182.393 243.01 184.141 241.213C185.889 239.417 188.022 238.041 190.38 237.19C191.196 236.907 192.036 236.7 192.89 236.57C193.4 236.5 193.89 236.45 194.41 236.42C196.751 236.356 199.07 236.879 201.156 237.943C203.242 239.007 205.028 240.577 206.35 242.51C210.81 248.51 212.93 256.44 214.28 262.66C214.75 264.8 215.11 266.81 215.38 268.71C218.54 290.27 210.21 296.69 209.82 296.97Z" fill="#263238" stroke="#263238" stroke-miterlimit="10"/>
<path d="M184.59 300.63C184.59 300.63 191.84 303.63 193.68 300.63C195.52 297.63 194.03 296.22 191.52 295.98C189.018 295.852 186.512 295.852 184.01 295.98L184.59 300.63Z" fill="#263238" stroke="#263238" stroke-miterlimit="10"/>
<path d="M187.92 299.63C187.789 300.031 187.535 300.38 187.194 300.628C186.853 300.876 186.442 301.01 186.02 301.01C185.809 301.01 185.6 300.976 185.4 300.91C183.213 300.253 181.186 299.15 179.448 297.67C177.709 296.189 176.297 294.364 175.3 292.31C172.1 285.84 172.52 277.03 174.14 268.71H178.14C176.54 276.56 176 284.79 178.84 290.54C179.601 292.118 180.685 293.518 182.022 294.65C183.359 295.781 184.918 296.62 186.6 297.11C186.853 297.187 187.088 297.314 187.292 297.483C187.495 297.652 187.663 297.86 187.786 298.094C187.909 298.329 187.984 298.585 188.007 298.849C188.03 299.112 188 299.378 187.92 299.63Z" fill="white" stroke="#263238" stroke-linecap="round" stroke-linejoin="round"/>
<path d="M203.14 294.8C202.839 295.158 202.616 295.575 202.487 296.025C202.358 296.475 202.325 296.947 202.39 297.41C202.59 298.095 203.023 298.688 203.615 299.087C204.207 299.485 204.92 299.663 205.63 299.59C207.05 299.401 208.349 298.688 209.27 297.59C210.27 296.47 213.74 289.14 210.53 290.4C208.2 291.28 204.7 292.77 203.14 294.8Z" fill="#263238" stroke="#263238" stroke-miterlimit="10"/>
<path d="M209.82 296.97C209.394 297.253 208.876 297.362 208.372 297.275C207.868 297.188 207.416 296.911 207.11 296.501C206.804 296.092 206.667 295.58 206.726 295.072C206.786 294.564 207.038 294.098 207.43 293.77C207.6 293.63 214.31 287.92 211.37 268.69H215.37C218.54 290.27 210.21 296.69 209.82 296.97Z" fill="white" stroke="#263238" stroke-linecap="round" stroke-linejoin="round"/>
<path opacity="0.2" d="M227.76 120.22C227.76 120.22 240.35 113.68 251.92 120.22C251.92 120.22 252.11 129.87 247.74 133.84C246.19 135.25 239.09 135.49 236.4 135.25C225.48 134.26 227.76 120.22 227.76 120.22Z" fill="white"/>
<path opacity="0.2" d="M219.86 120.22C219.86 120.22 207.27 113.68 195.71 120.22C195.71 120.22 195.52 129.87 199.88 133.84C201.43 135.25 208.54 135.49 211.22 135.25C222.14 134.26 219.86 120.22 219.86 120.22Z" fill="white"/>
<path d="M227.76 120.22C227.76 120.22 240.35 113.68 251.92 120.22C251.92 120.22 252.11 129.87 247.74 133.84C246.19 135.25 239.09 135.49 236.4 135.25C225.48 134.26 227.76 120.22 227.76 120.22Z" stroke="#263238" stroke-miterlimit="10"/>
<path d="M219.86 120.22C219.86 120.22 207.27 113.68 195.71 120.22C195.71 120.22 195.52 129.87 199.88 133.84C201.43 135.25 208.54 135.49 211.22 135.25C222.14 134.26 219.86 120.22 219.86 120.22Z" stroke="#263238" stroke-miterlimit="10"/>
<path d="M219.86 120.22C219.86 120.22 222.68 118.15 227.76 120.22" stroke="#263238" stroke-miterlimit="10"/>
<path d="M251.91 120.21L257.17 122.66" stroke="#263238" stroke-miterlimit="10"/>
<path d="M50.58 427.35L87.59 392.39H381.32L403.57 427.35H50.58Z" fill="white" stroke="#263238" stroke-linecap="round" stroke-linejoin="round"/>
<path d="M403.57 427.35H50.58V436.76H403.57V427.35Z" fill="#263238" stroke="#263238" stroke-linecap="round" stroke-linejoin="round"/>
<path d="M87.59 418.71V411.46H145.58V418.71H134.4H87.59Z" fill="white" stroke="#263238" stroke-miterlimit="10"/>
<path d="M87.59 411.46L121.85 388.48L167.56 389.55L145.58 411.46H87.59Z" fill="white" stroke="#263238" stroke-linecap="round" stroke-linejoin="round"/>
<path d="M145.58 418.71L167.56 396.69V389.55L145.58 411.46V418.71Z" fill="white" stroke="#263238" stroke-linecap="round" stroke-linejoin="round"/>
<path d="M144.02 409.63C144.02 409.63 139.39 410.55 139.39 414.56C139.39 418.57 143.39 419.75 143.39 419.75" stroke="#263238" stroke-width="2" stroke-linecap="round" stroke-linejoin="round"/>
<path d="M139.39 409.63C139.39 409.63 134.76 410.55 134.76 414.56C134.76 418.57 138.76 419.75 138.76 419.75" stroke="#263238" stroke-width="2" stroke-linecap="round" stroke-linejoin="round"/>
<path d="M134.76 409.63C134.76 409.63 130.13 410.55 130.13 414.56C130.13 418.57 134.13 419.75 134.13 419.75" stroke="#263238" stroke-width="2" stroke-linecap="round" stroke-linejoin="round"/>
<path d="M130.13 409.63C130.13 409.63 125.5 410.55 125.5 414.56C125.5 418.57 129.5 419.75 129.5 419.75" stroke="#263238" stroke-width="2" stroke-linecap="round" stroke-linejoin="round"/>
<path d="M125.5 409.63C125.5 409.63 120.87 410.55 120.87 414.56C120.87 418.57 124.87 419.75 124.87 419.75" stroke="#263238" stroke-width="2" stroke-linecap="round" stroke-linejoin="round"/>
<path d="M120.87 409.63C120.87 409.63 116.24 410.55 116.24 414.56C116.24 418.57 120.24 419.75 120.24 419.75" stroke="#263238" stroke-width="2" stroke-linecap="round" stroke-linejoin="round"/>
<path d="M116.24 409.63C116.24 409.63 111.61 410.55 111.61 414.56C111.61 418.57 115.61 419.75 115.61 419.75" stroke="#263238" stroke-width="2" stroke-linecap="round" stroke-linejoin="round"/>
<path d="M111.61 409.63C111.61 409.63 106.98 410.55 106.98 414.56C106.98 418.57 110.98 419.75 110.98 419.75" stroke="#263238" stroke-width="2" stroke-linecap="round" stroke-linejoin="round"/>
<path d="M106.41 409.63C106.41 409.63 101.78 410.55 101.78 414.56C101.78 418.57 105.78 419.75 105.78 419.75" stroke="#263238" stroke-width="2" stroke-linecap="round" stroke-linejoin="round"/>
<path d="M101.2 409.63C101.2 409.63 96.57 410.55 96.57 414.56C96.57 418.57 100.57 419.75 100.57 419.75" stroke="#263238" stroke-width="2" stroke-linecap="round" stroke-linejoin="round"/>
<path d="M95.41 409.63C95.41 409.63 90.78 410.55 90.78 414.56C90.78 418.57 94.78 419.75 94.78 419.75" stroke="#263238" stroke-width="2" stroke-linecap="round" stroke-linejoin="round"/>
<path d="M124.76 394.11C121.566 395.872 119.034 398.628 117.55 401.96C121.76 400.63 125.09 397.63 128.28 394.63L124.82 403.21C126.413 403.081 127.953 402.578 129.315 401.742C130.677 400.906 131.823 399.761 132.66 398.4C132.386 398.518 132.14 398.693 131.938 398.913C131.736 399.133 131.583 399.393 131.489 399.676C131.394 399.959 131.361 400.259 131.39 400.556C131.42 400.853 131.512 401.141 131.66 401.4C134.56 400.98 136.41 398.18 137.87 395.64C138.138 397.053 138.242 398.493 138.18 399.93C140.605 400.278 143.079 399.963 145.34 399.02" stroke="#263238" stroke-width="0.75" stroke-linecap="round" stroke-linejoin="round"/>
<path d="M379.37 357.37H278.56V412.72H379.37V357.37Z" fill="white" stroke="#263238" stroke-linecap="round" stroke-linejoin="round"/>
<path d="M278.16 412.71L261.96 397.3V341.95L278.16 357.37V412.71Z" fill="white" stroke="#263238" stroke-linecap="round" stroke-linejoin="round"/>
<path d="M379.37 357.37L363.16 341.95H262.35L278.56 357.37H379.37Z" fill="white" stroke="#263238" stroke-linecap="round" stroke-linejoin="round"/>
<path d="M342.29 378.13H333.38V368.81H320.83V378.13H311.11V390.68H320.83V400H333.38V390.68H342.29V378.13Z" fill="#5893FF" stroke="#263238" stroke-miterlimit="10"/>
<path d="M328.08 357.37L311.87 341.95" stroke="#263238" stroke-linecap="round" stroke-linejoin="round"/>
<path d="M115.006 122.115C126.765 110.356 126.765 91.2914 115.006 79.5327C103.248 67.774 84.1831 67.774 72.4244 79.5327C60.6657 91.2914 60.6657 110.356 72.4244 122.115C84.1831 133.873 103.248 133.873 115.006 122.115Z" fill="white" stroke="#263238" stroke-linecap="round" stroke-linejoin="round"/>
<path d="M118.76 96.22C118.76 98.2355 118.128 100.2 116.953 101.838C115.778 103.476 114.119 104.704 112.21 105.35L98.76 109.88L82.39 115.41C79.9785 116.203 77.3514 116.01 75.0812 114.874C72.811 113.739 71.0818 111.752 70.2703 109.346C69.4589 106.941 69.631 104.312 70.7492 102.034C71.8674 99.7546 73.8411 98.01 76.24 97.18L91.11 92.18L106.05 87.18C107.495 86.6938 109.036 86.5579 110.544 86.7833C112.052 87.0088 113.485 87.5891 114.725 88.4767C115.965 89.3642 116.977 90.5336 117.676 91.8885C118.376 93.2434 118.744 94.7451 118.75 96.27L118.76 96.22Z" fill="white"/>
<path d="M118.76 96.22C118.76 98.2355 118.128 100.2 116.953 101.838C115.778 103.476 114.119 104.704 112.21 105.35L98.76 109.88C98.4013 103.254 95.6885 96.9734 91.11 92.17L106.05 87.17C107.495 86.6838 109.036 86.5479 110.544 86.7733C112.052 86.9988 113.485 87.5791 114.725 88.4667C115.965 89.3542 116.977 90.5236 117.676 91.8785C118.376 93.2334 118.744 94.7351 118.75 96.26L118.76 96.22Z" fill="#5893FF"/>
<path d="M118.76 96.22C118.76 98.2355 118.128 100.2 116.953 101.838C115.778 103.476 114.119 104.704 112.21 105.35L98.76 109.88L82.39 115.41C79.9785 116.203 77.3514 116.01 75.0812 114.874C72.811 113.739 71.0818 111.752 70.2703 109.346C69.4589 106.941 69.631 104.312 70.7492 102.034C71.8674 99.7546 73.8411 98.01 76.24 97.18L91.11 92.18L106.05 87.18C107.495 86.6938 109.036 86.5579 110.544 86.7833C112.052 87.0088 113.485 87.5891 114.725 88.4767C115.965 89.3642 116.977 90.5336 117.676 91.8885C118.376 93.2434 118.744 94.7451 118.75 96.27L118.76 96.22Z" stroke="#263238" stroke-linecap="round" stroke-linejoin="round"/>
<path d="M98.76 109.88C98.4539 103.242 95.7334 96.9435 91.11 92.17" stroke="#263238" stroke-linecap="round" stroke-linejoin="round"/>
<path d="M115.54 92.63C116.171 93.6935 116.49 94.9135 116.46 96.15" stroke="white" stroke-linecap="round" stroke-linejoin="round"/>
<path d="M94.91 93.63L106.91 89.63C107.986 89.2609 109.131 89.1349 110.262 89.2612C111.393 89.3874 112.482 89.7627 113.45 90.36" stroke="white" stroke-linecap="round" stroke-linejoin="round"/>
<path d="M298.303 59.9857C313.617 53.5042 320.777 35.8353 314.295 20.5211C307.814 5.20697 290.145 -1.95325 274.831 4.5283C259.517 11.0098 252.357 28.6787 258.838 43.9929C265.32 59.307 282.988 66.4673 298.303 59.9857Z" fill="white" stroke="#263238" stroke-linecap="round" stroke-linejoin="round"/>
<path d="M296.95 44.86L270.69 36.07C268.506 35.336 266.704 33.765 265.678 31.7023C264.652 29.6396 264.488 27.2541 265.22 25.07C265.954 22.8865 267.525 21.0837 269.588 20.058C271.65 19.0323 274.036 18.8676 276.22 19.6L302.48 28.38C304.662 29.1163 306.463 30.6876 307.488 32.7496C308.514 34.8115 308.68 37.1958 307.95 39.38C307.216 41.5638 305.645 43.3671 303.583 44.3945C301.521 45.4218 299.135 45.5892 296.95 44.86Z" fill="#5893FF"/>
<path d="M277.71 35.36L282.1 24.86" stroke="#263238" stroke-linecap="round" stroke-linejoin="round"/>
<path d="M292.18 40.18L296.56 29.7" stroke="#263238" stroke-linecap="round" stroke-linejoin="round"/>
<path d="M281.34 35.99C281.832 35.99 282.23 35.5915 282.23 35.1C282.23 34.6085 281.832 34.21 281.34 34.21C280.848 34.21 280.45 34.6085 280.45 35.1C280.45 35.5915 280.848 35.99 281.34 35.99Z" fill="#263238"/>
<path d="M290.09 37.72C290.09 37.896 290.038 38.0681 289.94 38.2145C289.842 38.3608 289.703 38.4749 289.541 38.5423C289.378 38.6096 289.199 38.6272 289.026 38.5929C288.854 38.5586 288.695 38.4738 288.571 38.3493C288.446 38.2249 288.361 38.0663 288.327 37.8936C288.293 37.721 288.31 37.542 288.378 37.3794C288.445 37.2168 288.559 37.0778 288.706 36.98C288.852 36.8822 289.024 36.83 289.2 36.83C289.436 36.83 289.662 36.9238 289.829 37.0907C289.996 37.2576 290.09 37.484 290.09 37.72Z" fill="#263238"/>
<path d="M284.78 28.07C285.272 28.07 285.67 27.6715 285.67 27.18C285.67 26.6885 285.272 26.29 284.78 26.29C284.288 26.29 283.89 26.6885 283.89 27.18C283.89 27.6715 284.288 28.07 284.78 28.07Z" fill="#263238"/>
<path d="M293.41 29.72C293.41 29.896 293.358 30.0681 293.26 30.2145C293.162 30.3608 293.023 30.4749 292.861 30.5423C292.698 30.6096 292.519 30.6272 292.346 30.5929C292.174 30.5586 292.015 30.4738 291.891 30.3493C291.766 30.2249 291.681 30.0663 291.647 29.8936C291.613 29.721 291.63 29.542 291.698 29.3794C291.765 29.2168 291.879 29.0778 292.026 28.98C292.172 28.8822 292.344 28.83 292.52 28.83C292.756 28.83 292.982 28.9238 293.149 29.0907C293.316 29.2576 293.41 29.484 293.41 29.72Z" fill="#263238"/>
<path d="M296.95 44.86L270.69 36.07C268.506 35.336 266.704 33.765 265.678 31.7023C264.652 29.6396 264.488 27.2541 265.22 25.07V25.07C265.954 22.8865 267.525 21.0837 269.588 20.058C271.65 19.0323 274.036 18.8676 276.22 19.6L302.48 28.38C304.662 29.1163 306.463 30.6876 307.488 32.7496C308.514 34.8115 308.68 37.1958 307.95 39.38V39.38C307.216 41.5638 305.645 43.3671 303.583 44.3945C301.521 45.4218 299.135 45.5892 296.95 44.86V44.86Z" stroke="#263238" stroke-linecap="round" stroke-linejoin="round"/>
<path d="M172.89 60.72C189.519 60.72 203 47.2393 203 30.61C203 13.9807 189.519 0.5 172.89 0.5C156.261 0.5 142.78 13.9807 142.78 30.61C142.78 47.2393 156.261 60.72 172.89 60.72Z" fill="white" stroke="#263238" stroke-linecap="round" stroke-linejoin="round"/>
<path d="M190.15 31.39V43.73C190.15 46.86 188.15 49.4 185.7 49.4H160.1C157.64 49.4 155.65 46.86 155.65 43.73V31.39C155.65 28.26 157.65 25.72 160.1 25.72H164.31V18.56H181.31V25.72H185.67C188.15 25.72 190.15 28.26 190.15 31.39Z" fill="white" stroke="#263238" stroke-linecap="round" stroke-linejoin="round"/>
<path d="M190.14 32.81H155.65V40.46H190.14V32.81Z" fill="#5893FF" stroke="#263238" stroke-miterlimit="10"/>
<path d="M166.65 10.18H179.29C180.717 10.18 182.085 10.7468 183.094 11.7558C184.103 12.7647 184.67 14.1331 184.67 15.56V21.15H161.27V15.56C161.27 14.1331 161.837 12.7647 162.846 11.7558C163.855 10.7468 165.223 10.18 166.65 10.18Z" fill="#5893FF" stroke="#263238" stroke-miterlimit="10"/>
<path d="M165.36 10.51V21.15" stroke="#263238" stroke-linecap="round" stroke-linejoin="round"/>
<path d="M170.89 10.18V21.15" stroke="#263238" stroke-linecap="round" stroke-linejoin="round"/>
<path d="M176.42 10.18V21.15" stroke="#263238" stroke-linecap="round" stroke-linejoin="round"/>
<path d="M181.94 10.8V21.15" stroke="#263238" stroke-linecap="round" stroke-linejoin="round"/>
<path d="M95.7584 195.215C98.4486 178.805 87.3263 163.321 70.9161 160.631C54.5059 157.941 39.0219 169.063 36.3316 185.473C33.6414 201.883 44.7637 217.367 61.1739 220.058C77.5842 222.748 93.0682 211.626 95.7584 195.215Z" fill="white" stroke="#263238" stroke-linecap="round" stroke-linejoin="round"/>
<path d="M81.319 198.122C84.5986 191.187 80.0893 182.175 71.2472 177.994C62.4052 173.812 52.5786 176.044 49.2991 182.979C46.0195 189.914 50.5288 198.925 59.3708 203.107C68.2129 207.289 78.0395 205.056 81.319 198.122Z" fill="#5893FF" stroke="#263238" stroke-linecap="round" stroke-linejoin="round"/>
<path d="M82.4025 195.753C85.479 189.248 80.8051 180.584 71.9631 176.403C63.121 172.221 53.4591 174.105 50.3825 180.61C47.306 187.116 51.9799 195.779 60.822 199.961C69.6641 204.142 79.326 202.259 82.4025 195.753Z" fill="#5893FF" stroke="#263238" stroke-linecap="round" stroke-linejoin="round"/>
<path d="M71.5 179.28L60.58 194.66" stroke="#263238" stroke-linecap="round" stroke-linejoin="round"/>
<path d="M64.93 176.8C66.3948 176.998 67.8378 177.332 69.24 177.8" stroke="white" stroke-linecap="round" stroke-linejoin="round"/>
<path d="M55.22 191.27C55.22 191.27 49.64 185.16 55.09 179.27C56.3477 177.988 57.9855 177.146 59.76 176.87" stroke="white" stroke-linecap="round" stroke-linejoin="round"/>
<path d="M412.912 195.243C415.603 178.832 404.48 163.348 388.07 160.658C371.66 157.968 356.176 169.09 353.486 185.501C350.795 201.911 361.918 217.395 378.328 220.085C394.738 222.775 410.222 211.653 412.912 195.243Z" fill="white" stroke="#263238" stroke-linecap="round" stroke-linejoin="round"/>
<path d="M400.49 193.39C400.26 193.72 400.03 194.06 399.79 194.39C395.28 200.64 388.33 206.47 383.18 207.62V207.54C378.18 206.42 371.45 200.87 366.94 194.81C366.69 194.48 366.45 194.14 366.22 193.81C361.88 187.59 360.05 181.06 364.88 178.36C374.7 172.88 383.18 184.63 383.18 184.63C383.18 184.63 391.68 172.97 401.48 178.44C406.18 181.06 404.57 187.32 400.49 193.39Z" fill="#5893FF" stroke="#263238" stroke-miterlimit="10"/>
<path d="M400.49 193.39C400.26 193.72 400.03 194.06 399.79 194.39H397.31L394.47 198.14L392.54 187.02L389.54 194.58H382.45L378.82 200.63L376.02 188.38L372.41 194.77H366.94C366.69 194.44 366.45 194.1 366.22 193.77H371.83L376.42 185.64L379.24 197.99L381.91 193.54H388.91L392.91 183.3L395.05 195.66L396.8 193.35L400.49 193.39Z" fill="white"/>
<path d="M354.22 131.28C370.849 131.28 384.33 117.799 384.33 101.17C384.33 84.5407 370.849 71.06 354.22 71.06C337.591 71.06 324.11 84.5407 324.11 101.17C324.11 117.799 337.591 131.28 354.22 131.28Z" fill="white" stroke="#263238" stroke-linecap="round" stroke-linejoin="round"/>
<path d="M351.96 87.25C352.25 87.9 350.44 89.34 347.96 90.47C345.48 91.6 343.16 91.99 342.87 91.33C342.58 90.67 344.38 89.24 346.87 88.11C349.36 86.98 351.66 86.63 351.96 87.25Z" fill="white" stroke="#263238" stroke-linecap="round" stroke-linejoin="round"/>
<path d="M365.51 115.17L356.49 119.54L348.42 102.9L342.84 91.39L351.84 87.03L357.29 98.25L365.51 115.17Z" fill="white" stroke="#263238" stroke-linecap="round" stroke-linejoin="round"/>
<path d="M344.51 94.83L348.42 93.02L344.51 94.83Z" fill="#5893FF"/>
<path d="M344.51 94.83L348.42 93.02" stroke="#263238" stroke-linecap="round" stroke-linejoin="round"/>
<path d="M346.21 98.45L350.12 96.64L346.21 98.45Z" fill="#5893FF"/>
<path d="M346.21 98.45L350.12 96.64" stroke="#263238" stroke-linecap="round" stroke-linejoin="round"/>
<path d="M359.95 117.86L364.59 123.97L362.27 116.74L359.95 117.86Z" fill="white" stroke="#263238" stroke-linecap="round" stroke-linejoin="round"/>
<path d="M365.51 115.18C363.401 117.292 360.709 118.726 357.78 119.3L356.5 119.54L348.42 102.9L357.29 98.25L365.51 115.18Z" fill="#5893FF" stroke="#263238" stroke-miterlimit="10"/>
<path d="M350.12 106.06L353.79 104.36" stroke="#263238" stroke-linecap="round" stroke-linejoin="round"/>
<path d="M352.14 109.93L355.75 108.28L352.14 109.93Z" fill="#5893FF"/>
<path d="M352.14 109.93L355.75 108.28" stroke="#263238" stroke-linecap="round" stroke-linejoin="round"/>
<path d="M345.96 89.88L343.11 83.47L345.34 82.2L348.42 88.69L345.96 89.88Z" fill="white" stroke="#263238" stroke-linecap="round" stroke-linejoin="round"/>
<path d="M350.85 81.42L350.17 79.92L338.17 85.29L338.85 86.79C339.13 87.43 342.04 86.73 345.36 85.25C348.68 83.77 351.13 82.05 350.85 81.42Z" fill="white" stroke="#263238" stroke-linecap="round" stroke-linejoin="round"/>
<path d="M350.17 79.92C349.89 79.29 346.97 79.98 343.66 81.46C340.35 82.94 337.89 84.66 338.17 85.29C338.45 85.92 341.37 85.23 344.68 83.74C347.99 82.25 350.45 80.55 350.17 79.92Z" fill="white" stroke="#263238" stroke-linecap="round" stroke-linejoin="round"/>
</g>
<defs>
<clipPath id="clip0_128_105">
<rect width="439.54" height="437.26" fill="white"/>
</clipPath>
</defs>
</svg>
