<svg width="215" height="215" viewBox="0 0 215 215" fill="none" xmlns="http://www.w3.org/2000/svg">
<path d="M92.0587 184.333V163.953H102.24V153.7H92.0943C92.0943 150.295 92.0943 146.871 92.0943 143.466H112.51V133.285H122.709V143.412H132.944V122.943H163.612V133.124H173.758V122.943H163.576V112.673H143.125V92.3817H112.439V102.581H92.0943V123.032H102.222V133.231H92.0409V143.448H81.8419V133.213H51.1914V123.032H81.8419V41.2263H92.0943C92.0943 51.0687 92.0943 60.911 92.0943 70.7534V71.8589H102.311V51.4788H112.492V71.8946H122.763V82.0757H173.865V92.2747H184.099V102.563H173.918V112.815H184.064V133.285H194.316V153.718H184.171V174.116H194.173V184.333H214.589V194.532H184.064V214.948H173.865V204.749H153.36V194.532H143.161V184.333H163.505V174.116H112.528V184.28H92.0587V184.333ZM153.36 153.665V143.501H143.214V153.647H153.395V163.828H173.758V153.665H153.36ZM132.89 153.665H122.852V163.775H132.962L132.89 153.665ZM153.413 102.438H163.523V92.3104H153.413V102.438Z" fill="#263238"/>
<path d="M0.0712891 71.8234V0.359161H71.5177V71.8234H0.0712891ZM10.3238 10.6116V61.6244H61.3187V10.6116H10.3238Z" fill="#263238"/>
<path d="M214.642 71.8412H143.196V0.394821H214.642V71.8412ZM204.443 10.6116H153.448V61.6066H204.443V10.6116Z" fill="#263238"/>
<path d="M0.0889893 143.466H71.5533V214.93H0.0889893V143.466ZM61.3364 153.718H10.3236V204.731H61.3364V153.718Z" fill="#263238"/>
<path d="M92.0412 41.2264V20.775H81.8422V0.376989H132.855V20.7393H122.852V30.974H132.962V51.3719H122.781V41.2264H112.51V31.0274H102.311V41.1908H92.0233L92.0412 41.2264ZM102.294 20.7037H112.421V10.6116H102.294V20.7037Z" fill="#263238"/>
<path d="M51.1374 92.3107V102.527H71.5532V112.726H40.9384V133.16H0.106812V112.833H10.2166V122.943H30.7216V92.3107H51.1552H51.1374Z" fill="#263238"/>
<path d="M92.0233 184.315V194.532H102.24V204.731H112.421V214.948H81.8422V184.333H91.9877L92.0233 184.315Z" fill="#263238"/>
<path d="M30.7216 92.3103H10.288V102.491H0.106812V82.1648H30.6859V92.3281L30.7216 92.3103Z" fill="#263238"/>
<path d="M214.643 112.726H204.515V92.3463H194.316V82.1473H214.643V112.726Z" fill="#263238"/>
<path d="M51.1555 92.3459V82.1648H71.5357V92.3103H51.1377L51.1555 92.3459Z" fill="#263238"/>
<path d="M194.28 133.231V123.05H204.425V133.196H194.173L194.28 133.231Z" fill="#263238"/>
<path d="M204.532 143.484H214.642V153.612H204.532V143.484Z" fill="#263238"/>
<path d="M122.708 71.8945V61.7133H132.872V71.8588H122.69L122.708 71.8945Z" fill="#263238"/>
<path d="M92.059 163.953H81.8422V153.754H91.9877V163.953H92.059Z" fill="#263238"/>
<path d="M194.28 174.116V163.953H204.426V174.098H194.28V174.116Z" fill="#263238"/>
<path d="M184.028 102.563H194.173V112.762H184.028V102.51V102.563Z" fill="#263238"/>
<path d="M132.872 204.731H122.744V194.621H132.872V204.731Z" fill="#263238"/>
<path d="M153.359 204.749V214.93H143.214V204.784H153.395L153.359 204.749Z" fill="#263238"/>
<path d="M214.642 214.966H204.532V204.838H214.642V214.966Z" fill="#263238"/>
<path d="M132.943 122.943H122.851V112.798H133.015V122.943H132.943Z" fill="#263238"/>
<path d="M51.0842 51.3897H20.5229V20.8284H51.0842V51.3897Z" fill="#263238"/>
<path d="M163.629 51.3718V20.8105H194.173V51.3718H163.629Z" fill="#263238"/>
<path d="M20.5229 194.496V163.953H51.0842V194.514L20.5229 194.496Z" fill="#263238"/>
</svg>
