<svg width="143" height="70" viewBox="0 0 143 70" fill="none" xmlns="http://www.w3.org/2000/svg">
<path d="M8.42253 68.0007C5.68349 68.0007 3.59498 67.2351 2.15699 65.7038C0.718996 64.1385 0 61.9097 0 59.0174V31.7611H5.64926V59.4257C5.64926 60.6507 5.88892 61.5354 6.36825 62.0799C6.88182 62.6243 7.60082 62.8965 8.52524 62.8965C9.44967 62.8965 10.1515 62.6243 10.6309 62.0799C11.1444 61.5354 11.4012 60.6507 11.4012 59.4257V31.7611H16.8451V59.0174C16.8451 61.9097 16.1261 64.1385 14.6881 65.7038C13.2501 67.2351 11.1616 68.0007 8.42253 68.0007Z" fill="#5893FF"/>
<path d="M23.1796 31.7611H30.2669L35.762 53.1476H35.8648V31.7611H40.8977V67.4903H35.0944L28.3153 41.408H28.2126V67.4903H23.1796V31.7611Z" fill="#5893FF"/>
<path d="M47.4076 31.7611H53.0569V67.4903H47.4076V31.7611Z" fill="#5893FF"/>
<path d="M80.6712 31.7611H89.2992C92.1067 31.7611 94.2123 32.5097 95.6161 34.007C97.0198 35.5042 97.7217 37.699 97.7217 40.5913V58.6601C97.7217 61.5524 97.0198 63.7472 95.6161 65.2445C94.2123 66.7417 92.1067 67.4903 89.2992 67.4903H80.6712V31.7611ZM89.1965 62.3861C90.1209 62.3861 90.8228 62.1139 91.3021 61.5695C91.8157 61.025 92.0724 60.1403 92.0724 58.9153V40.3361C92.0724 39.1111 91.8157 38.2264 91.3021 37.6819C90.8228 37.1375 90.1209 36.8653 89.1965 36.8653H86.3205V62.3861H89.1965Z" fill="#5893FF"/>
<path d="M112.012 68.0007C109.238 68.0007 107.116 67.2181 105.644 65.6528C104.171 64.0875 103.435 61.8757 103.435 59.0174V40.234C103.435 37.3757 104.171 35.1639 105.644 33.5986C107.116 32.0333 109.238 31.2507 112.012 31.2507C114.785 31.2507 116.908 32.0333 118.38 33.5986C119.852 35.1639 120.588 37.3757 120.588 40.234V59.0174C120.588 61.8757 119.852 64.0875 118.38 65.6528C116.908 67.2181 114.785 68.0007 112.012 68.0007ZM112.012 62.8965C113.963 62.8965 114.939 61.7226 114.939 59.3747V39.8767C114.939 37.5288 113.963 36.3549 112.012 36.3549C110.06 36.3549 109.084 37.5288 109.084 39.8767V59.3747C109.084 61.7226 110.06 62.8965 112.012 62.8965Z" fill="#5893FF"/>
<path d="M134.68 68.0007C131.975 68.0007 129.904 67.2351 128.466 65.7038C127.062 64.1726 126.36 62.0118 126.36 59.2215V40.0299C126.36 37.2396 127.062 35.0788 128.466 33.5476C129.904 32.0163 131.975 31.2507 134.68 31.2507C137.385 31.2507 139.439 32.0163 140.843 33.5476C142.281 35.0788 143 37.2396 143 40.0299V43.807H137.659V39.6726C137.659 37.4608 136.717 36.3549 134.834 36.3549C132.951 36.3549 132.01 37.4608 132.01 39.6726V59.6299C132.01 61.8076 132.951 62.8965 134.834 62.8965C136.717 62.8965 137.659 61.8076 137.659 59.6299V54.1684H143V59.2215C143 62.0118 142.281 64.1726 140.843 65.7038C139.439 67.2351 137.385 68.0007 134.68 68.0007Z" fill="#5893FF"/>
<path d="M107.703 14.0296C107.766 13.9649 107.823 13.892 107.871 13.8124C96.3659 13.7334 80.0515 6.52609 80.0515 6.52609C80.0515 6.52609 75.8584 3.56418 72.6255 7.15797C70.2382 9.75458 68.4588 11.6897 67.5074 12.7066V8.11566C68.3364 7.94371 69.0874 7.45738 69.6344 6.73828C70.1814 6.01919 70.491 5.1111 70.5113 4.16643C70.5113 3.06143 70.1196 2.00168 69.4225 1.22032C68.7253 0.438964 67.7798 0 66.7938 0C65.8079 0 64.8624 0.438964 64.1652 1.22032C63.4681 2.00168 63.0764 3.06143 63.0764 4.16643C63.0946 5.10412 63.398 6.00672 63.9362 6.72488C64.4744 7.44304 65.2153 7.9337 66.0363 8.11566V12.7264C65.1554 11.7391 63.3407 9.76446 60.9887 7.07899C57.7998 3.48519 53.5626 6.35825 53.5626 6.35825C53.5626 6.35825 37.1513 13.3484 25.6995 13.299C25.7388 13.3827 25.7927 13.4565 25.8581 13.5162C32.138 14.0409 38.4518 13.3733 44.5333 11.5416C44.5333 11.5416 37.3363 15.3625 26.0343 13.7038C27.153 14.9676 31.6457 18.7687 43.7669 14.3456C46.2423 13.4175 46.2423 13.4175 44.6478 14.3456C44.6478 14.3456 39.7412 17.5247 31.5311 18.3935C31.7896 18.9656 32.1864 19.4446 32.6763 19.7757C38.1783 19.5079 43.5724 17.9755 48.5238 15.2736C48.5238 15.2736 42.5425 20.3583 32.6675 19.7955C34.6407 21.1777 39.5562 22.3427 51.6246 16.8336C51.6246 16.8336 53.1398 16.3794 52.0827 17.0508C51.0256 17.7221 43.3529 21.3653 37.3539 21.8195C38.0272 22.3863 38.7935 22.7989 39.6091 23.0339C44.9735 22.0638 50.1953 20.2802 55.1306 17.732C55.1306 17.732 49.7395 21.8293 39.8821 23.1128C42.7539 23.9126 48.2331 24.1001 57.3593 19.1636C57.3593 19.1636 58.4957 18.9662 57.6236 19.4203C56.7515 19.8745 50.9375 23.4584 45.8987 24.0113C45.5023 24.0113 47.1937 24.7024 49.854 24.7221C53.3929 23.8333 56.7477 22.1946 59.7378 19.8942C57.2054 22.4152 54.092 24.0881 50.7525 24.7221C54.6541 24.5969 58.4173 23.0745 61.4908 20.378C62.9321 21.4634 64.4293 22.4524 65.9746 23.3399L65.9041 36.7673C64.6709 36.1354 63.4816 35.5628 62.3805 34.8914C61.5266 34.418 60.7303 33.8241 60.0109 33.1241C59.7378 32.8082 59.2004 31.4753 59.8963 30.7645C60.6576 30.5425 61.4619 30.5943 62.1955 30.9126V30.8336C62.4857 30.9175 62.7885 30.9318 63.084 30.8758C63.3795 30.8197 63.6611 30.6944 63.9105 30.508C64.1599 30.3217 64.3714 30.0785 64.5312 29.7944C64.6911 29.5102 64.7957 29.1915 64.8382 28.859C65.0496 27.2102 64.5123 26.1142 63.2614 25.897V25.8378C61.7567 25.4201 60.1755 25.5094 58.7159 26.0945C57.7993 26.4894 57.0145 27.1931 56.4696 28.1086C55.9739 29.0005 55.6917 30.0207 55.6504 31.0705C55.6238 31.5143 55.6238 31.9596 55.6504 32.4034C55.7013 32.9809 55.829 33.5466 56.0292 34.0818C56.3942 34.9604 56.9299 35.7362 57.5972 36.3526C58.6338 37.2344 59.7792 37.9428 60.9975 38.4556C61.6846 38.8011 62.3717 39.0578 63.0676 39.3244C62.3989 39.8776 61.8779 40.6253 61.5613 41.4866C61.4183 42.0209 61.3876 42.5851 61.4717 43.135C61.5557 43.6848 61.7522 44.2054 62.0458 44.6559C62.4245 45.2087 62.7505 45.6432 63.1469 46.2158C63.8055 47.1335 64.5084 48.0102 65.2523 48.842C64.7946 49.4491 64.3987 50.1114 64.0718 50.8166C63.7334 51.5337 63.5774 52.3412 63.6209 53.1509C63.6644 53.9606 63.9057 54.7413 64.3185 55.4076C64.7288 56.0383 65.2049 56.6118 65.7368 57.1157C65.6937 57.1665 65.6465 57.2128 65.5958 57.2539C64.7208 58.1369 63.9404 59.1308 63.2702 60.2158C62.8822 60.8407 62.7071 61.6009 62.7769 62.3583C62.8892 63.0512 63.1982 63.6849 63.6578 64.165C64.3083 64.9099 64.9965 65.612 65.7191 66.268V67.976C65.45 68.3439 65.2682 68.782 65.1906 69.2496C65.3435 68.8231 65.5201 68.4076 65.7191 68.0056V69.8124H67.1902V67.9168C67.3865 68.2116 67.5249 68.5497 67.5962 68.9087C67.6676 69.2678 67.6703 69.6397 67.6043 70C67.7384 69.3411 67.6892 68.652 67.4633 68.0254C67.3888 67.8623 67.2971 67.7098 67.1902 67.5712V66.4161C67.9865 65.702 68.7481 64.9406 69.4718 64.1354C69.9641 63.6631 70.3019 63.0204 70.432 62.3089C70.4867 61.5501 70.3063 60.7934 69.9211 60.1664C69.2295 59.0856 68.435 58.0924 67.5514 57.2045C67.5514 57.2045 67.5074 57.2045 67.4898 57.1354C67.9938 56.6291 68.454 56.0705 68.864 55.4669C69.2734 54.8016 69.51 54.0219 69.5474 53.2148C69.5847 52.4077 69.4213 51.6048 69.0754 50.8956C68.762 50.1595 68.3685 49.4697 67.9038 48.842C68.6645 48.0199 69.3794 47.1462 70.0444 46.2257C70.4327 45.7173 70.7973 45.1867 71.1367 44.6361C71.4401 44.1911 71.6433 43.6708 71.7292 43.1191C71.815 42.5674 71.781 42.0007 71.63 41.4669C71.3329 40.6477 70.8427 39.9344 70.2118 39.4034C70.8636 39.1269 71.5243 38.8999 72.185 38.5839C73.4015 38.0561 74.5437 37.3345 75.5765 36.4415C76.2474 35.8235 76.7811 35.0394 77.1357 34.1509C77.3452 33.6268 77.4704 33.0652 77.5057 32.4922C77.5324 32.0452 77.5324 31.5966 77.5057 31.1495C77.4351 30.0957 77.1325 29.078 76.6248 28.1876C76.0516 27.2627 75.2448 26.551 74.308 26.1439C72.8411 25.5813 71.2621 25.4957 69.7537 25.897V25.9563C68.4852 26.2031 67.9919 27.3484 68.1857 28.9182C68.2282 29.2507 68.3328 29.5695 68.4926 29.8536C68.6525 30.1378 68.864 30.3809 69.1134 30.5673C69.3628 30.7536 69.6444 30.8789 69.9399 30.935C70.2354 30.9911 70.5382 30.9767 70.8284 30.8928C71.6112 30.569 72.4653 30.531 73.2685 30.7842C73.9732 31.5049 73.4359 32.8477 73.1628 33.1537C72.4548 33.8704 71.6563 34.4659 70.7932 34.921C69.7185 35.5726 68.5733 36.1453 67.3929 36.7278L67.4633 23.3498C69.017 22.4618 70.5229 21.4729 71.9736 20.3879C75.0187 23.127 78.7664 24.7013 82.6678 24.8801C79.3384 24.1898 76.244 22.4813 73.7266 19.9436C76.6971 22.2743 80.0365 23.9496 83.5663 24.8801C86.209 24.8801 87.918 24.2482 87.5128 24.2186C82.4916 23.5966 76.6952 19.9929 75.8319 19.4795C74.9687 18.9662 76.1226 19.2327 76.1226 19.2327C85.196 24.2976 90.684 24.1693 93.5558 23.4288C83.7073 22.0169 78.3954 17.8505 78.3954 17.8505C83.2878 20.4713 88.4777 22.3283 93.8201 23.3695C94.64 23.1554 95.4111 22.7519 96.084 22.1848C90.085 21.6516 82.4828 17.9196 81.4433 17.2482C80.4038 16.5769 81.8838 17.031 81.8838 17.031C93.8553 22.6784 98.8148 21.5924 100.788 20.2102C90.9395 20.6446 85.0022 15.481 85.0022 15.481C89.941 18.2618 95.3394 19.8685 100.859 20.2003C101.355 19.8736 101.761 19.3984 102.03 18.8279C93.8289 17.8406 88.9398 14.6121 88.9398 14.6121C87.3278 13.6248 87.3278 13.6248 89.8207 14.6121C101.907 19.1932 106.435 15.4513 107.571 14.1975C96.2249 15.708 89.072 11.7884 89.072 11.7884C95.1265 13.7002 101.425 14.4578 107.703 14.0296ZM64.019 43.0959C63.8164 42.6714 63.9045 42.622 63.9309 42.5628C64.4816 41.9475 65.1505 41.4814 65.8865 41.2003V45.9591C65.5494 45.5435 65.2319 45.1085 64.9351 44.6559C64.6092 44.1721 64.3009 43.5994 64.019 43.0959ZM65.4813 54.4993C65.2638 54.0843 65.1566 53.6083 65.1722 53.1274C65.1878 52.6464 65.3256 52.1804 65.5694 51.7842C65.6463 51.6471 65.738 51.5211 65.8425 51.409V54.9831C65.7122 54.8315 65.5915 54.6698 65.4813 54.4993ZM64.1423 63.7701C63.9427 63.6 63.7777 63.3841 63.6585 63.1368C63.5393 62.8895 63.4686 62.6165 63.4511 62.3361C63.4336 62.0557 63.4697 61.7744 63.557 61.5109C63.6443 61.2474 63.7808 61.0078 63.9573 60.8082C64.5128 60.085 65.1294 59.4238 65.7984 58.8336V65.7447C65.2082 65.0733 64.6444 64.4316 64.1423 63.7701ZM69.2692 60.7391C69.4467 60.9374 69.5844 61.1758 69.6732 61.4385C69.7619 61.7012 69.7996 61.9822 69.7838 62.2625C69.768 62.5428 69.6989 62.8162 69.5813 63.0642C69.4637 63.3123 69.3002 63.5294 69.1018 63.701C68.5185 64.491 67.8949 65.2426 67.2343 65.952V58.6164C67.9785 59.2401 68.6608 59.9518 69.2692 60.7391ZM67.7364 54.5585C67.6093 54.7912 67.4586 55.0066 67.2871 55.2003V51.3695C67.4093 51.5092 67.5158 51.665 67.6043 51.8336C67.8567 52.226 68.0033 52.6913 68.0267 53.1744C68.0501 53.6574 67.9494 54.1378 67.7364 54.5585ZM69.1459 43.0367C68.8816 43.5402 68.5557 44.1128 68.265 44.5867C67.9743 45.0607 67.6571 45.4457 67.3312 45.89V41.1608C68.0454 41.434 68.6895 41.8983 69.2075 42.5134C69.2075 42.5134 69.3485 42.6023 69.1459 43.0367Z" fill="#5893FF"/>
</svg>
