<svg width="721" height="433" viewBox="0 0 721 433" fill="none" xmlns="http://www.w3.org/2000/svg">
<path d="M290.885 145.934L345.767 201.405L434.903 109.615M347.094 291.868C328.81 290.107 311.051 284.762 294.833 276.139C278.614 267.515 264.253 255.782 252.569 241.608C240.885 227.434 232.108 211.098 226.737 193.532C221.367 175.966 219.509 157.515 221.269 139.231C223.03 120.947 228.375 103.188 236.998 86.9699C245.622 70.7514 257.355 56.3902 271.529 44.7063C285.702 33.0225 302.039 24.2447 319.605 18.8743C337.171 13.5038 355.622 11.6458 373.906 13.4064C410.833 16.962 444.834 35.0408 468.431 63.6658C492.027 92.2908 503.286 129.117 499.731 166.043C496.175 202.97 478.096 236.971 449.471 260.568C420.846 284.164 384.02 295.423 347.094 291.868Z" stroke="#5893FF" stroke-width="11"/>
<path d="M33.0341 396.994C33.0341 398.487 32.6741 399.887 31.9541 401.194C31.2607 402.501 30.1541 403.554 28.6341 404.354C27.1407 405.154 25.2474 405.554 22.9541 405.554H18.2741V416.274H12.6741V388.354H22.9541C25.1141 388.354 26.9541 388.727 28.4741 389.474C29.9941 390.221 31.1274 391.247 31.8741 392.554C32.6474 393.861 33.0341 395.341 33.0341 396.994ZM22.7141 401.034C24.2607 401.034 25.4074 400.687 26.1541 399.994C26.9007 399.274 27.2741 398.274 27.2741 396.994C27.2741 394.274 25.7541 392.914 22.7141 392.914H18.2741V401.034H22.7141ZM42.61 397.554C43.33 396.381 44.2633 395.461 45.41 394.794C46.5833 394.127 47.9167 393.794 49.41 393.794V399.674H47.93C46.17 399.674 44.8367 400.087 43.93 400.914C43.05 401.741 42.61 403.181 42.61 405.234V416.274H37.01V394.114H42.61V397.554ZM73.7819 404.714C73.7819 405.514 73.7285 406.234 73.6219 406.874H57.4219C57.5552 408.474 58.1152 409.727 59.1019 410.634C60.0885 411.541 61.3019 411.994 62.7419 411.994C64.8219 411.994 66.3019 411.101 67.1819 409.314H73.2219C72.5819 411.447 71.3552 413.207 69.5419 414.594C67.7285 415.954 65.5019 416.634 62.8619 416.634C60.7285 416.634 58.8085 416.167 57.1019 415.234C55.4219 414.274 54.1019 412.927 53.1419 411.194C52.2085 409.461 51.7419 407.461 51.7419 405.194C51.7419 402.901 52.2085 400.887 53.1419 399.154C54.0752 397.421 55.3819 396.087 57.0619 395.154C58.7419 394.221 60.6752 393.754 62.8619 393.754C64.9685 393.754 66.8485 394.207 68.5019 395.114C70.1819 396.021 71.4752 397.314 72.3819 398.994C73.3152 400.647 73.7819 402.554 73.7819 404.714ZM67.9819 403.114C67.9552 401.674 67.4352 400.527 66.4219 399.674C65.4085 398.794 64.1685 398.354 62.7019 398.354C61.3152 398.354 60.1419 398.781 59.1819 399.634C58.2485 400.461 57.6752 401.621 57.4619 403.114H67.9819ZM86.3494 416.634C84.536 416.634 82.9094 416.314 81.4694 415.674C80.0294 415.007 78.8827 414.114 78.0294 412.994C77.2027 411.874 76.7494 410.634 76.6694 409.274H82.3094C82.416 410.127 82.8294 410.834 83.5494 411.394C84.296 411.954 85.216 412.234 86.3094 412.234C87.376 412.234 88.2027 412.021 88.7894 411.594C89.4027 411.167 89.7094 410.621 89.7094 409.954C89.7094 409.234 89.336 408.701 88.5894 408.354C87.8694 407.981 86.7094 407.581 85.1094 407.154C83.456 406.754 82.096 406.341 81.0294 405.914C79.9894 405.487 79.0827 404.834 78.3094 403.954C77.5627 403.074 77.1894 401.887 77.1894 400.394C77.1894 399.167 77.536 398.047 78.2294 397.034C78.9494 396.021 79.9627 395.221 81.2694 394.634C82.6027 394.047 84.1627 393.754 85.9494 393.754C88.5894 393.754 90.696 394.421 92.2694 395.754C93.8427 397.061 94.7094 398.834 94.8694 401.074H89.5094C89.4294 400.194 89.056 399.501 88.3894 398.994C87.7494 398.461 86.8827 398.194 85.7894 398.194C84.776 398.194 83.9894 398.381 83.4294 398.754C82.896 399.127 82.6294 399.647 82.6294 400.314C82.6294 401.061 83.0027 401.634 83.7494 402.034C84.496 402.407 85.656 402.794 87.2294 403.194C88.8294 403.594 90.1494 404.007 91.1894 404.434C92.2294 404.861 93.1227 405.527 93.8694 406.434C94.6427 407.314 95.0427 408.487 95.0694 409.954C95.0694 411.234 94.7094 412.381 93.9894 413.394C93.296 414.407 92.2827 415.207 90.9494 415.794C89.6427 416.354 88.1094 416.634 86.3494 416.634ZM98.2262 405.194C98.2262 402.901 98.6929 400.901 99.6263 399.194C100.56 397.461 101.853 396.127 103.506 395.194C105.16 394.234 107.053 393.754 109.186 393.754C111.933 393.754 114.2 394.447 115.986 395.834C117.8 397.194 119.013 399.114 119.626 401.594H113.586C113.266 400.634 112.72 399.887 111.946 399.354C111.2 398.794 110.266 398.514 109.146 398.514C107.546 398.514 106.28 399.101 105.346 400.274C104.413 401.421 103.946 403.061 103.946 405.194C103.946 407.301 104.413 408.941 105.346 410.114C106.28 411.261 107.546 411.834 109.146 411.834C111.413 411.834 112.893 410.821 113.586 408.794H119.626C119.013 411.194 117.8 413.101 115.986 414.514C114.173 415.927 111.906 416.634 109.186 416.634C107.053 416.634 105.16 416.167 103.506 415.234C101.853 414.274 100.56 412.941 99.6263 411.234C98.6929 409.501 98.2262 407.487 98.2262 405.194ZM129.329 397.554C130.049 396.381 130.982 395.461 132.129 394.794C133.302 394.127 134.635 393.794 136.129 393.794V399.674H134.649C132.889 399.674 131.555 400.087 130.649 400.914C129.769 401.741 129.329 403.181 129.329 405.234V416.274H123.729V394.114H129.329V397.554ZM142.741 391.474C141.754 391.474 140.927 391.167 140.261 390.554C139.621 389.914 139.301 389.127 139.301 388.194C139.301 387.261 139.621 386.487 140.261 385.874C140.927 385.234 141.754 384.914 142.741 384.914C143.727 384.914 144.541 385.234 145.181 385.874C145.847 386.487 146.181 387.261 146.181 388.194C146.181 389.127 145.847 389.914 145.181 390.554C144.541 391.167 143.727 391.474 142.741 391.474ZM145.501 394.114V416.274H139.901V394.114H145.501ZM156.633 397.314C157.353 396.301 158.34 395.461 159.593 394.794C160.873 394.101 162.327 393.754 163.953 393.754C165.847 393.754 167.553 394.221 169.073 395.154C170.62 396.087 171.833 397.421 172.713 399.154C173.62 400.861 174.073 402.847 174.073 405.114C174.073 407.381 173.62 409.394 172.713 411.154C171.833 412.887 170.62 414.234 169.073 415.194C167.553 416.154 165.847 416.634 163.953 416.634C162.327 416.634 160.887 416.301 159.633 415.634C158.407 414.967 157.407 414.127 156.633 413.114V426.834H151.033V394.114H156.633V397.314ZM168.353 405.114C168.353 403.781 168.073 402.634 167.513 401.674C166.98 400.687 166.26 399.941 165.353 399.434C164.473 398.927 163.513 398.674 162.473 398.674C161.46 398.674 160.5 398.941 159.593 399.474C158.713 399.981 157.993 400.727 157.433 401.714C156.9 402.701 156.633 403.861 156.633 405.194C156.633 406.527 156.9 407.687 157.433 408.674C157.993 409.661 158.713 410.421 159.593 410.954C160.5 411.461 161.46 411.714 162.473 411.714C163.513 411.714 164.473 411.447 165.353 410.914C166.26 410.381 166.98 409.621 167.513 408.634C168.073 407.647 168.353 406.474 168.353 405.114ZM184.663 398.714V409.434C184.663 410.181 184.836 410.727 185.183 411.074C185.556 411.394 186.169 411.554 187.023 411.554H189.623V416.274H186.103C181.383 416.274 179.023 413.981 179.023 409.394V398.714H176.383V394.114H179.023V388.634H184.663V394.114H189.623V398.714H184.663ZM196.491 391.474C195.504 391.474 194.677 391.167 194.011 390.554C193.371 389.914 193.051 389.127 193.051 388.194C193.051 387.261 193.371 386.487 194.011 385.874C194.677 385.234 195.504 384.914 196.491 384.914C197.477 384.914 198.291 385.234 198.931 385.874C199.597 386.487 199.931 387.261 199.931 388.194C199.931 389.127 199.597 389.914 198.931 390.554C198.291 391.167 197.477 391.474 196.491 391.474ZM199.251 394.114V416.274H193.651V394.114H199.251ZM214.623 416.634C212.49 416.634 210.57 416.167 208.863 415.234C207.157 414.274 205.81 412.927 204.823 411.194C203.863 409.461 203.383 407.461 203.383 405.194C203.383 402.927 203.877 400.927 204.863 399.194C205.877 397.461 207.25 396.127 208.983 395.194C210.717 394.234 212.65 393.754 214.783 393.754C216.917 393.754 218.85 394.234 220.583 395.194C222.317 396.127 223.677 397.461 224.663 399.194C225.677 400.927 226.183 402.927 226.183 405.194C226.183 407.461 225.663 409.461 224.623 411.194C223.61 412.927 222.223 414.274 220.463 415.234C218.73 416.167 216.783 416.634 214.623 416.634ZM214.623 411.754C215.637 411.754 216.583 411.514 217.463 411.034C218.37 410.527 219.09 409.781 219.623 408.794C220.157 407.807 220.423 406.607 220.423 405.194C220.423 403.087 219.863 401.474 218.743 400.354C217.65 399.207 216.303 398.634 214.703 398.634C213.103 398.634 211.757 399.207 210.663 400.354C209.597 401.474 209.063 403.087 209.063 405.194C209.063 407.301 209.583 408.927 210.623 410.074C211.69 411.194 213.023 411.754 214.623 411.754ZM242.571 393.794C245.211 393.794 247.345 394.634 248.971 396.314C250.598 397.967 251.411 400.287 251.411 403.274V416.274H245.811V404.034C245.811 402.274 245.371 400.927 244.491 399.994C243.611 399.034 242.411 398.554 240.891 398.554C239.345 398.554 238.118 399.034 237.211 399.994C236.331 400.927 235.891 402.274 235.891 404.034V416.274H230.291V394.114H235.891V396.874C236.638 395.914 237.585 395.167 238.731 394.634C239.905 394.074 241.185 393.794 242.571 393.794ZM287.188 394.114V416.274H281.548V413.474C280.828 414.434 279.881 415.194 278.708 415.754C277.561 416.287 276.308 416.554 274.948 416.554C273.214 416.554 271.681 416.194 270.348 415.474C269.014 414.727 267.961 413.647 267.188 412.234C266.441 410.794 266.068 409.087 266.068 407.114V394.114H271.668V406.314C271.668 408.074 272.108 409.434 272.988 410.394C273.868 411.327 275.068 411.794 276.588 411.794C278.134 411.794 279.348 411.327 280.228 410.394C281.108 409.434 281.548 408.074 281.548 406.314V394.114H287.188ZM298.313 397.314C299.033 396.301 300.02 395.461 301.273 394.794C302.553 394.101 304.006 393.754 305.633 393.754C307.526 393.754 309.233 394.221 310.753 395.154C312.3 396.087 313.513 397.421 314.393 399.154C315.3 400.861 315.753 402.847 315.753 405.114C315.753 407.381 315.3 409.394 314.393 411.154C313.513 412.887 312.3 414.234 310.753 415.194C309.233 416.154 307.526 416.634 305.633 416.634C304.006 416.634 302.566 416.301 301.313 415.634C300.086 414.967 299.086 414.127 298.313 413.114V426.834H292.713V394.114H298.313V397.314ZM310.033 405.114C310.033 403.781 309.753 402.634 309.193 401.674C308.66 400.687 307.94 399.941 307.033 399.434C306.153 398.927 305.193 398.674 304.153 398.674C303.14 398.674 302.18 398.941 301.273 399.474C300.393 399.981 299.673 400.727 299.113 401.714C298.58 402.701 298.313 403.861 298.313 405.194C298.313 406.527 298.58 407.687 299.113 408.674C299.673 409.661 300.393 410.421 301.273 410.954C302.18 411.461 303.14 411.714 304.153 411.714C305.193 411.714 306.153 411.447 307.033 410.914C307.94 410.381 308.66 409.621 309.193 408.634C309.753 407.647 310.033 406.474 310.033 405.114ZM325.423 386.674V416.274H319.823V386.674H325.423ZM340.795 416.634C338.662 416.634 336.742 416.167 335.035 415.234C333.329 414.274 331.982 412.927 330.995 411.194C330.035 409.461 329.555 407.461 329.555 405.194C329.555 402.927 330.049 400.927 331.035 399.194C332.049 397.461 333.422 396.127 335.155 395.194C336.889 394.234 338.822 393.754 340.955 393.754C343.089 393.754 345.022 394.234 346.755 395.194C348.489 396.127 349.849 397.461 350.835 399.194C351.849 400.927 352.355 402.927 352.355 405.194C352.355 407.461 351.835 409.461 350.795 411.194C349.782 412.927 348.395 414.274 346.635 415.234C344.902 416.167 342.955 416.634 340.795 416.634ZM340.795 411.754C341.809 411.754 342.755 411.514 343.635 411.034C344.542 410.527 345.262 409.781 345.795 408.794C346.329 407.807 346.595 406.607 346.595 405.194C346.595 403.087 346.035 401.474 344.915 400.354C343.822 399.207 342.475 398.634 340.875 398.634C339.275 398.634 337.929 399.207 336.835 400.354C335.769 401.474 335.235 403.087 335.235 405.194C335.235 407.301 335.755 408.927 336.795 410.074C337.862 411.194 339.195 411.754 340.795 411.754ZM355.023 405.114C355.023 402.874 355.463 400.887 356.343 399.154C357.25 397.421 358.463 396.087 359.983 395.154C361.53 394.221 363.25 393.754 365.143 393.754C366.796 393.754 368.236 394.087 369.463 394.754C370.716 395.421 371.716 396.261 372.463 397.274V394.114H378.103V416.274H372.463V413.034C371.743 414.074 370.743 414.941 369.463 415.634C368.21 416.301 366.756 416.634 365.103 416.634C363.236 416.634 361.53 416.154 359.983 415.194C358.463 414.234 357.25 412.887 356.343 411.154C355.463 409.394 355.023 407.381 355.023 405.114ZM372.463 405.194C372.463 403.834 372.196 402.674 371.663 401.714C371.13 400.727 370.41 399.981 369.503 399.474C368.596 398.941 367.623 398.674 366.583 398.674C365.543 398.674 364.583 398.927 363.703 399.434C362.823 399.941 362.103 400.687 361.543 401.674C361.01 402.634 360.743 403.781 360.743 405.114C360.743 406.447 361.01 407.621 361.543 408.634C362.103 409.621 362.823 410.381 363.703 410.914C364.61 411.447 365.57 411.714 366.583 411.714C367.623 411.714 368.596 411.461 369.503 410.954C370.41 410.421 371.13 409.674 371.663 408.714C372.196 407.727 372.463 406.554 372.463 405.194ZM382.132 405.114C382.132 402.874 382.572 400.887 383.452 399.154C384.359 397.421 385.586 396.087 387.133 395.154C388.679 394.221 390.399 393.754 392.293 393.754C393.733 393.754 395.106 394.074 396.413 394.714C397.719 395.327 398.759 396.154 399.533 397.194V386.674H405.213V416.274H399.533V412.994C398.839 414.087 397.866 414.967 396.613 415.634C395.359 416.301 393.906 416.634 392.253 416.634C390.386 416.634 388.679 416.154 387.133 415.194C385.586 414.234 384.359 412.887 383.452 411.154C382.572 409.394 382.132 407.381 382.132 405.114ZM399.573 405.194C399.573 403.834 399.306 402.674 398.773 401.714C398.239 400.727 397.519 399.981 396.613 399.474C395.706 398.941 394.733 398.674 393.693 398.674C392.653 398.674 391.693 398.927 390.812 399.434C389.933 399.941 389.213 400.687 388.653 401.674C388.119 402.634 387.853 403.781 387.853 405.114C387.853 406.447 388.119 407.621 388.653 408.634C389.213 409.621 389.933 410.381 390.812 410.914C391.719 411.447 392.679 411.714 393.693 411.714C394.733 411.714 395.706 411.461 396.613 410.954C397.519 410.421 398.239 409.674 398.773 408.714C399.306 407.727 399.573 406.554 399.573 405.194ZM431.282 404.714C431.282 405.514 431.229 406.234 431.122 406.874H414.922C415.055 408.474 415.615 409.727 416.602 410.634C417.589 411.541 418.802 411.994 420.242 411.994C422.322 411.994 423.802 411.101 424.682 409.314H430.722C430.082 411.447 428.855 413.207 427.042 414.594C425.229 415.954 423.002 416.634 420.362 416.634C418.229 416.634 416.309 416.167 414.602 415.234C412.922 414.274 411.602 412.927 410.642 411.194C409.709 409.461 409.242 407.461 409.242 405.194C409.242 402.901 409.709 400.887 410.642 399.154C411.575 397.421 412.882 396.087 414.562 395.154C416.242 394.221 418.175 393.754 420.362 393.754C422.469 393.754 424.349 394.207 426.002 395.114C427.682 396.021 428.975 397.314 429.882 398.994C430.815 400.647 431.282 402.554 431.282 404.714ZM425.482 403.114C425.455 401.674 424.935 400.527 423.922 399.674C422.909 398.794 421.669 398.354 420.202 398.354C418.815 398.354 417.642 398.781 416.682 399.634C415.749 400.461 415.175 401.621 414.962 403.114H425.482ZM433.929 405.114C433.929 402.874 434.369 400.887 435.249 399.154C436.156 397.421 437.383 396.087 438.929 395.154C440.476 394.221 442.196 393.754 444.089 393.754C445.529 393.754 446.903 394.074 448.209 394.714C449.516 395.327 450.556 396.154 451.329 397.194V386.674H457.009V416.274H451.329V412.994C450.636 414.087 449.663 414.967 448.409 415.634C447.156 416.301 445.703 416.634 444.049 416.634C442.183 416.634 440.476 416.154 438.929 415.194C437.383 414.234 436.156 412.887 435.249 411.154C434.369 409.394 433.929 407.381 433.929 405.114ZM451.369 405.194C451.369 403.834 451.103 402.674 450.569 401.714C450.036 400.727 449.316 399.981 448.409 399.474C447.503 398.941 446.529 398.674 445.489 398.674C444.449 398.674 443.489 398.927 442.609 399.434C441.729 399.941 441.009 400.687 440.449 401.674C439.916 402.634 439.649 403.781 439.649 405.114C439.649 406.447 439.916 407.621 440.449 408.634C441.009 409.621 441.729 410.381 442.609 410.914C443.516 411.447 444.476 411.714 445.489 411.714C446.529 411.714 447.503 411.461 448.409 410.954C449.316 410.421 450.036 409.674 450.569 408.714C451.103 407.727 451.369 406.554 451.369 405.194ZM480.49 416.634C478.677 416.634 477.05 416.314 475.61 415.674C474.17 415.007 473.023 414.114 472.17 412.994C471.343 411.874 470.89 410.634 470.81 409.274H476.45C476.557 410.127 476.97 410.834 477.69 411.394C478.437 411.954 479.357 412.234 480.45 412.234C481.517 412.234 482.343 412.021 482.93 411.594C483.543 411.167 483.85 410.621 483.85 409.954C483.85 409.234 483.477 408.701 482.73 408.354C482.01 407.981 480.85 407.581 479.25 407.154C477.597 406.754 476.237 406.341 475.17 405.914C474.13 405.487 473.223 404.834 472.45 403.954C471.703 403.074 471.33 401.887 471.33 400.394C471.33 399.167 471.677 398.047 472.37 397.034C473.09 396.021 474.103 395.221 475.41 394.634C476.743 394.047 478.303 393.754 480.09 393.754C482.73 393.754 484.837 394.421 486.41 395.754C487.983 397.061 488.85 398.834 489.01 401.074H483.65C483.57 400.194 483.197 399.501 482.53 398.994C481.89 398.461 481.023 398.194 479.93 398.194C478.917 398.194 478.13 398.381 477.57 398.754C477.037 399.127 476.77 399.647 476.77 400.314C476.77 401.061 477.143 401.634 477.89 402.034C478.637 402.407 479.797 402.794 481.37 403.194C482.97 403.594 484.29 404.007 485.33 404.434C486.37 404.861 487.263 405.527 488.01 406.434C488.783 407.314 489.183 408.487 489.21 409.954C489.21 411.234 488.85 412.381 488.13 413.394C487.437 414.407 486.423 415.207 485.09 415.794C483.783 416.354 482.25 416.634 480.49 416.634ZM514.727 394.114V416.274H509.087V413.474C508.367 414.434 507.42 415.194 506.247 415.754C505.1 416.287 503.847 416.554 502.487 416.554C500.754 416.554 499.22 416.194 497.887 415.474C496.554 414.727 495.5 413.647 494.727 412.234C493.98 410.794 493.607 409.087 493.607 407.114V394.114H499.207V406.314C499.207 408.074 499.647 409.434 500.527 410.394C501.407 411.327 502.607 411.794 504.127 411.794C505.674 411.794 506.887 411.327 507.767 410.394C508.647 409.434 509.087 408.074 509.087 406.314V394.114H514.727ZM518.812 405.194C518.812 402.901 519.279 400.901 520.212 399.194C521.146 397.461 522.439 396.127 524.092 395.194C525.746 394.234 527.639 393.754 529.772 393.754C532.519 393.754 534.786 394.447 536.572 395.834C538.386 397.194 539.599 399.114 540.212 401.594H534.172C533.852 400.634 533.306 399.887 532.532 399.354C531.786 398.794 530.852 398.514 529.732 398.514C528.132 398.514 526.866 399.101 525.932 400.274C524.999 401.421 524.532 403.061 524.532 405.194C524.532 407.301 524.999 408.941 525.932 410.114C526.866 411.261 528.132 411.834 529.732 411.834C531.999 411.834 533.479 410.821 534.172 408.794H540.212C539.599 411.194 538.386 413.101 536.572 414.514C534.759 415.927 532.492 416.634 529.772 416.634C527.639 416.634 525.746 416.167 524.092 415.234C522.439 414.274 521.146 412.941 520.212 411.234C519.279 409.501 518.812 407.487 518.812 405.194ZM542.875 405.194C542.875 402.901 543.341 400.901 544.275 399.194C545.208 397.461 546.501 396.127 548.155 395.194C549.808 394.234 551.701 393.754 553.835 393.754C556.581 393.754 558.848 394.447 560.635 395.834C562.448 397.194 563.661 399.114 564.275 401.594H558.235C557.915 400.634 557.368 399.887 556.595 399.354C555.848 398.794 554.915 398.514 553.795 398.514C552.195 398.514 550.928 399.101 549.995 400.274C549.061 401.421 548.595 403.061 548.595 405.194C548.595 407.301 549.061 408.941 549.995 410.114C550.928 411.261 552.195 411.834 553.795 411.834C556.061 411.834 557.541 410.821 558.235 408.794H564.275C563.661 411.194 562.448 413.101 560.635 414.514C558.821 415.927 556.555 416.634 553.835 416.634C551.701 416.634 549.808 416.167 548.155 415.234C546.501 414.274 545.208 412.941 544.275 411.234C543.341 409.501 542.875 407.487 542.875 405.194ZM588.977 404.714C588.977 405.514 588.924 406.234 588.817 406.874H572.617C572.751 408.474 573.311 409.727 574.297 410.634C575.284 411.541 576.497 411.994 577.937 411.994C580.017 411.994 581.497 411.101 582.377 409.314H588.417C587.777 411.447 586.551 413.207 584.737 414.594C582.924 415.954 580.697 416.634 578.057 416.634C575.924 416.634 574.004 416.167 572.297 415.234C570.617 414.274 569.297 412.927 568.337 411.194C567.404 409.461 566.937 407.461 566.937 405.194C566.937 402.901 567.404 400.887 568.337 399.154C569.271 397.421 570.577 396.087 572.257 395.154C573.937 394.221 575.871 393.754 578.057 393.754C580.164 393.754 582.044 394.207 583.697 395.114C585.377 396.021 586.671 397.314 587.577 398.994C588.511 400.647 588.977 402.554 588.977 404.714ZM583.177 403.114C583.151 401.674 582.631 400.527 581.617 399.674C580.604 398.794 579.364 398.354 577.897 398.354C576.511 398.354 575.337 398.781 574.377 399.634C573.444 400.461 572.871 401.621 572.657 403.114H583.177ZM601.545 416.634C599.731 416.634 598.105 416.314 596.665 415.674C595.225 415.007 594.078 414.114 593.225 412.994C592.398 411.874 591.945 410.634 591.865 409.274H597.505C597.611 410.127 598.025 410.834 598.745 411.394C599.491 411.954 600.411 412.234 601.505 412.234C602.571 412.234 603.398 412.021 603.985 411.594C604.598 411.167 604.905 410.621 604.905 409.954C604.905 409.234 604.531 408.701 603.785 408.354C603.065 407.981 601.905 407.581 600.305 407.154C598.651 406.754 597.291 406.341 596.225 405.914C595.185 405.487 594.278 404.834 593.505 403.954C592.758 403.074 592.385 401.887 592.385 400.394C592.385 399.167 592.731 398.047 593.425 397.034C594.145 396.021 595.158 395.221 596.465 394.634C597.798 394.047 599.358 393.754 601.145 393.754C603.785 393.754 605.891 394.421 607.465 395.754C609.038 397.061 609.905 398.834 610.065 401.074H604.705C604.625 400.194 604.251 399.501 603.585 398.994C602.945 398.461 602.078 398.194 600.985 398.194C599.971 398.194 599.185 398.381 598.625 398.754C598.091 399.127 597.825 399.647 597.825 400.314C597.825 401.061 598.198 401.634 598.945 402.034C599.691 402.407 600.851 402.794 602.425 403.194C604.025 403.594 605.345 404.007 606.385 404.434C607.425 404.861 608.318 405.527 609.065 406.434C609.838 407.314 610.238 408.487 610.265 409.954C610.265 411.234 609.905 412.381 609.185 413.394C608.491 414.407 607.478 415.207 606.145 415.794C604.838 416.354 603.305 416.634 601.545 416.634ZM623.342 416.634C621.528 416.634 619.902 416.314 618.462 415.674C617.022 415.007 615.875 414.114 615.022 412.994C614.195 411.874 613.742 410.634 613.662 409.274H619.302C619.408 410.127 619.822 410.834 620.542 411.394C621.288 411.954 622.208 412.234 623.302 412.234C624.368 412.234 625.195 412.021 625.782 411.594C626.395 411.167 626.702 410.621 626.702 409.954C626.702 409.234 626.328 408.701 625.582 408.354C624.862 407.981 623.702 407.581 622.102 407.154C620.448 406.754 619.088 406.341 618.022 405.914C616.982 405.487 616.075 404.834 615.302 403.954C614.555 403.074 614.182 401.887 614.182 400.394C614.182 399.167 614.528 398.047 615.222 397.034C615.942 396.021 616.955 395.221 618.262 394.634C619.595 394.047 621.155 393.754 622.942 393.754C625.582 393.754 627.688 394.421 629.262 395.754C630.835 397.061 631.702 398.834 631.862 401.074H626.502C626.422 400.194 626.048 399.501 625.382 398.994C624.742 398.461 623.875 398.194 622.782 398.194C621.768 398.194 620.982 398.381 620.422 398.754C619.888 399.127 619.622 399.647 619.622 400.314C619.622 401.061 619.995 401.634 620.742 402.034C621.488 402.407 622.648 402.794 624.222 403.194C625.822 403.594 627.142 404.007 628.182 404.434C629.222 404.861 630.115 405.527 630.862 406.434C631.635 407.314 632.035 408.487 632.062 409.954C632.062 411.234 631.702 412.381 630.982 413.394C630.288 414.407 629.275 415.207 627.942 415.794C626.635 416.354 625.102 416.634 623.342 416.634ZM646.818 398.714H642.938V416.274H637.258V398.714H634.738V394.114H637.258V392.994C637.258 390.274 638.032 388.274 639.578 386.994C641.125 385.714 643.458 385.114 646.578 385.194V389.914C645.218 389.887 644.272 390.114 643.738 390.594C643.205 391.074 642.938 391.941 642.938 393.194V394.114H646.818V398.714ZM671.368 394.114V416.274H665.728V413.474C665.008 414.434 664.061 415.194 662.888 415.754C661.741 416.287 660.488 416.554 659.128 416.554C657.394 416.554 655.861 416.194 654.528 415.474C653.194 414.727 652.141 413.647 651.368 412.234C650.621 410.794 650.248 409.087 650.248 407.114V394.114H655.848V406.314C655.848 408.074 656.288 409.434 657.168 410.394C658.048 411.327 659.248 411.794 660.768 411.794C662.314 411.794 663.528 411.327 664.408 410.394C665.288 409.434 665.728 408.074 665.728 406.314V394.114H671.368ZM682.493 386.674V416.274H676.893V386.674H682.493ZM693.626 386.674V416.274H688.026V386.674H693.626ZM720.358 394.114L706.638 426.754H700.678L705.478 415.714L696.598 394.114H702.878L708.598 409.594L714.398 394.114H720.358Z" fill="black"/>
</svg>
